<svg xmlns="http://www.w3.org/2000/svg" xmlns:xlink="http://www.w3.org/1999/xlink" width="1080" zoomAndPan="magnify" viewBox="0 0 810 809.999993" height="1080" preserveAspectRatio="xMidYMid meet" version="1.0"><path fill="#00b4d8" d="M 163.523438 52.492188 L 160.269531 55.28125 L 160.269531 287.683594 C 160.269531 539.503906 160.035156 530.085938 166.78125 557.40625 C 172.476562 580.773438 180.847656 601.46875 192.242188 619.953125 C 194.796875 624.140625 196.890625 628.09375 196.890625 628.675781 C 196.890625 629.371094 194.683594 632.976562 192.007812 636.8125 C 178.988281 654.949219 165.617188 673.667969 161.546875 679.597656 C 157.128906 685.875 139.34375 710.753906 133.066406 719.355469 L 130.042969 723.308594 L 134.691406 720.519531 C 137.25 719.007812 144.339844 714.707031 150.386719 710.871094 C 156.433594 707.035156 168.988281 699.242188 178.289062 693.429688 C 187.589844 687.617188 201.425781 678.898438 209.097656 674.015625 C 229.328125 660.996094 226.886719 661.460938 234.210938 669.015625 C 264.4375 700.058594 308.964844 724.9375 355.003906 736.332031 C 381.628906 742.957031 392.90625 744.238281 424.761719 744.351562 C 455.453125 744.351562 464.289062 743.421875 490.679688 737.84375 C 525.324219 730.519531 556.484375 718.3125 584.5 700.988281 C 667.046875 649.949219 711.921875 563.683594 712.15625 456.027344 C 712.15625 424.171875 709.828125 406.96875 701.808594 378.714844 C 693.203125 348.605469 683.320312 326.863281 667.046875 302.332031 C 639.839844 261.292969 606.9375 231.53125 566.015625 210.835938 C 542.066406 198.746094 517.070312 190.722656 489.285156 186.191406 C 474.519531 183.75 434.292969 182.816406 417.203125 184.445312 C 394.300781 186.65625 364.539062 193.863281 343.960938 202 C 331.636719 206.882812 312.453125 216.417969 305.246094 221.183594 C 301.757812 223.394531 298.503906 225.253906 297.921875 225.253906 C 297.339844 225.253906 296.875 192.46875 296.875 144.570312 L 296.875 63.882812 L 293.039062 58.769531 C 285.945312 49.46875 288.503906 49.816406 223.980469 49.699219 L 166.78125 49.699219 Z M 500.214844 280.359375 C 512.1875 283.035156 527.300781 289.3125 536.484375 295.589844 C 552.066406 306.285156 568.339844 326.398438 577.527344 346.511719 L 581.59375 355.464844 L 586.710938 355.464844 C 589.617188 355.464844 594.035156 356.277344 596.707031 357.207031 C 603.453125 359.53125 639.839844 376.855469 639.839844 377.667969 C 639.839844 378.019531 633.679688 381.042969 626.238281 384.527344 C 618.679688 387.898438 605.542969 393.945312 597.058594 398.015625 L 581.59375 405.339844 L 577.875 413.246094 L 574.152344 421.152344 L 574.503906 453.121094 C 574.851562 483 574.734375 486.257812 571.945312 501.953125 C 565.550781 539.269531 553.808594 567.40625 534.859375 591.007812 C 511.257812 620.535156 483.472656 638.90625 446.851562 649.367188 C 436.269531 652.390625 434.640625 652.507812 409.066406 652.507812 C 383.835938 652.507812 381.511719 652.273438 368.722656 649.253906 C 352.796875 645.53125 346.515625 643.4375 346.050781 641.929688 C 345.9375 641.347656 353.261719 637.511719 362.328125 633.441406 C 403.253906 614.839844 420.574219 605.886719 429.644531 598.5625 C 454.175781 578.800781 472.425781 543.6875 479.402344 502.882812 C 480.214844 498.695312 480.566406 494.160156 480.332031 493 C 479.984375 491.71875 479.402344 492.765625 478.9375 495.558594 C 476.148438 510.089844 467.425781 529.273438 457.195312 542.875 C 443.710938 560.894531 421.039062 578.566406 392.789062 592.867188 C 369.304688 604.839844 318.265625 625.652344 277.109375 640.183594 C 267.808594 643.4375 252.929688 648.902344 243.976562 652.390625 C 235.023438 655.761719 227.117188 658.203125 226.421875 657.855469 C 223.746094 656.34375 200.261719 630.765625 200.613281 629.71875 C 200.84375 629.140625 212.003906 613.792969 225.375 595.539062 C 306.175781 485.90625 335.125 445.449219 344.074219 429.753906 C 351.402344 416.964844 355.933594 404.875 359.074219 390.109375 C 369.070312 343.488281 374.535156 330.46875 392.089844 312.097656 C 409.648438 293.730469 432.550781 282.335938 460.21875 278.265625 C 467.3125 277.222656 491.84375 278.5 500.214844 280.359375 Z M 500.214844 280.359375 " fill-opacity="1" fill-rule="nonzero"/><path fill="#00b4d8" d="M 493.933594 339.070312 C 481.84375 344.652344 476.496094 357.671875 481.613281 368.832031 C 489.285156 385.808594 511.488281 386.96875 521.488281 370.925781 C 525.558594 364.300781 525.324219 353.023438 520.90625 346.394531 C 515.09375 337.558594 503.816406 334.539062 493.933594 339.070312 Z M 493.933594 339.070312 " fill-opacity="1" fill-rule="nonzero"/><path fill="#00b4d8" d="M -111.195312 909.441406 L -111.195312 1035.582031 L -66.785156 1035.582031 L -67.25 1026.28125 C -67.484375 1021.167969 -67.25 1016.980469 -66.785156 1016.980469 C -66.320312 1016.980469 -63.53125 1019.539062 -60.625 1022.679688 C -50.742188 1033.257812 -27.957031 1041.398438 -8.539062 1041.398438 C 2.855469 1041.398438 18.898438 1037.558594 28.546875 1032.5625 C 40.058594 1026.632812 55.171875 1011.519531 61.214844 999.890625 C 76.214844 971.175781 78.769531 936.996094 68.308594 905.371094 C 55.054688 865.378906 25.058594 845.148438 -17.492188 847.589844 C -36.210938 848.636719 -52.601562 854.914062 -63.183594 865.03125 C -65.273438 867.007812 -67.019531 868.167969 -67.019531 867.472656 C -67.019531 866.890625 -67.019531 847.707031 -67.019531 824.804688 L -67.019531 783.300781 L -111.195312 783.300781 Z M 0.992188 893.628906 C 28.082031 907 36.800781 948.621094 18.664062 978.734375 C 5.410156 1000.707031 -26.445312 1006.167969 -48.53125 990.359375 C -62.71875 980.242188 -69.34375 962.6875 -67.714844 940.019531 C -66.4375 921.765625 -59.925781 907.929688 -48.648438 899.328125 C -38.535156 891.539062 -29.699219 888.980469 -15.398438 889.675781 C -8.191406 890.027344 -4.820312 890.722656 0.992188 893.628906 Z M 0.992188 893.628906 " fill-opacity="1" fill-rule="nonzero"/></svg>