<svg xmlns="http://www.w3.org/2000/svg" xmlns:xlink="http://www.w3.org/1999/xlink" width="1080" zoomAndPan="magnify" viewBox="0 0 810 809.999993" height="1080" preserveAspectRatio="xMidYMid meet" version="1.0"><path fill="#ac25c2" d="M 181.753906 75.722656 L 178.746094 78.300781 L 178.746094 293.15625 C 178.746094 525.960938 178.53125 517.257812 184.765625 542.515625 C 190.03125 564.117188 197.769531 583.25 208.304688 600.339844 C 210.667969 604.210938 212.601562 607.863281 212.601562 608.402344 C 212.601562 609.046875 210.5625 612.378906 208.089844 615.925781 C 196.050781 632.691406 183.691406 649.996094 179.929688 655.476562 C 175.84375 661.28125 159.398438 684.285156 153.59375 692.238281 L 150.800781 695.890625 L 155.101562 693.3125 C 157.464844 691.914062 164.019531 687.9375 169.609375 684.390625 C 175.199219 680.84375 186.808594 673.640625 195.40625 668.269531 C 204.003906 662.894531 216.792969 654.832031 223.886719 650.320312 C 242.589844 638.28125 240.332031 638.710938 247.105469 645.699219 C 275.050781 674.394531 316.214844 697.394531 358.777344 707.929688 C 383.390625 714.054688 393.816406 715.238281 423.265625 715.34375 C 451.640625 715.34375 459.808594 714.484375 484.207031 709.328125 C 516.238281 702.554688 545.042969 691.269531 570.945312 675.253906 C 647.257812 628.070312 688.746094 548.320312 688.960938 448.792969 C 688.960938 419.339844 686.8125 403.433594 679.394531 377.316406 C 671.441406 349.476562 662.304688 329.378906 647.257812 306.699219 C 622.105469 268.757812 591.691406 241.246094 553.855469 222.113281 C 531.714844 210.933594 508.605469 203.519531 482.917969 199.328125 C 469.269531 197.070312 432.078125 196.210938 416.28125 197.714844 C 395.105469 199.757812 367.589844 206.421875 348.566406 213.945312 C 337.171875 218.457031 319.4375 227.273438 312.777344 231.679688 C 309.550781 233.71875 306.542969 235.441406 306.003906 235.441406 C 305.464844 235.441406 305.035156 205.128906 305.035156 160.847656 L 305.035156 86.253906 L 301.488281 81.527344 C 294.933594 72.929688 297.296875 73.25 237.644531 73.144531 L 184.765625 73.144531 Z M 493.023438 286.386719 C 504.09375 288.859375 518.066406 294.664062 526.554688 300.464844 C 540.957031 310.355469 556.007812 328.949219 564.496094 347.542969 L 568.257812 355.820312 L 572.988281 355.820312 C 575.675781 355.820312 579.757812 356.570312 582.230469 357.433594 C 588.464844 359.582031 622.105469 375.597656 622.105469 376.347656 C 622.105469 376.671875 616.410156 379.464844 609.53125 382.691406 C 602.546875 385.808594 590.398438 391.394531 582.554688 395.15625 L 568.257812 401.929688 L 564.820312 409.238281 L 561.378906 416.546875 L 561.703125 446.105469 C 562.023438 473.726562 561.917969 476.738281 559.339844 491.246094 C 553.425781 525.746094 542.570312 551.757812 525.050781 573.578125 C 503.234375 600.878906 477.542969 617.859375 443.6875 627.53125 C 433.90625 630.328125 432.402344 630.433594 408.757812 630.433594 C 385.433594 630.433594 383.285156 630.21875 371.460938 627.425781 C 356.734375 623.984375 350.929688 622.050781 350.5 620.652344 C 350.394531 620.117188 357.164062 616.570312 365.550781 612.808594 C 403.382812 595.609375 419.398438 587.335938 427.78125 580.5625 C 450.460938 562.292969 467.332031 529.832031 473.78125 492.105469 C 474.535156 488.238281 474.859375 484.046875 474.644531 482.96875 C 474.320312 481.789062 473.78125 482.753906 473.351562 485.335938 C 470.773438 498.769531 462.710938 516.503906 453.253906 529.078125 C 440.785156 545.738281 419.828125 562.078125 393.710938 575.296875 C 371.996094 586.367188 324.8125 605.605469 286.765625 619.042969 C 278.167969 622.050781 264.410156 627.101562 256.132812 630.328125 C 247.855469 633.445312 240.546875 635.703125 239.902344 635.378906 C 237.429688 633.980469 215.71875 610.335938 216.042969 609.367188 C 216.257812 608.832031 226.574219 594.644531 238.9375 577.769531 C 313.636719 476.414062 340.398438 439.011719 348.675781 424.5 C 355.445312 412.675781 359.636719 401.5 362.539062 387.847656 C 371.78125 344.75 376.835938 332.710938 393.0625 315.730469 C 409.292969 298.746094 430.46875 288.214844 456.046875 284.453125 C 462.605469 283.484375 485.285156 284.667969 493.023438 286.386719 Z M 493.023438 286.386719 " fill-opacity="1" fill-rule="nonzero"/><path fill="#ac25c2" d="M 487.21875 340.664062 C 476.039062 345.824219 471.097656 357.863281 475.824219 368.179688 C 482.917969 383.871094 503.449219 384.945312 512.691406 370.113281 C 516.453125 363.988281 516.238281 353.5625 512.152344 347.4375 C 506.78125 339.265625 496.355469 336.472656 487.21875 340.664062 Z M 487.21875 340.664062 " fill-opacity="1" fill-rule="nonzero"/><path fill="#ac25c2" d="M -72.222656 867.96875 L -72.222656 984.585938 L -31.164062 984.585938 L -31.59375 975.988281 C -31.808594 971.257812 -31.59375 967.390625 -31.164062 967.390625 C -30.734375 967.390625 -28.15625 969.753906 -25.46875 972.65625 C -16.332031 982.4375 4.734375 989.960938 22.683594 989.960938 C 33.214844 989.960938 48.046875 986.414062 56.96875 981.792969 C 67.609375 976.3125 81.582031 962.339844 87.171875 951.589844 C 101.035156 925.042969 103.402344 893.441406 93.726562 864.207031 C 81.476562 827.234375 53.746094 808.53125 14.40625 810.789062 C -2.898438 811.757812 -18.050781 817.558594 -27.832031 826.910156 C -29.769531 828.738281 -31.378906 829.8125 -31.378906 829.167969 C -31.378906 828.632812 -31.378906 810.894531 -31.378906 789.722656 L -31.378906 751.351562 L -72.222656 751.351562 Z M 31.496094 853.351562 C 56.539062 865.710938 64.601562 904.191406 47.832031 932.027344 C 35.582031 952.34375 6.128906 957.394531 -14.289062 942.777344 C -27.402344 933.425781 -33.53125 917.195312 -32.023438 896.238281 C -30.84375 879.363281 -24.824219 866.570312 -14.398438 858.617188 C -5.046875 851.417969 3.121094 849.050781 16.339844 849.699219 C 23.003906 850.019531 26.121094 850.664062 31.496094 853.351562 Z M 31.496094 853.351562 " fill-opacity="1" fill-rule="nonzero"/><path fill="#ac25c2" d="M 193.257812 810.464844 C 177.457031 811.972656 161.65625 818.3125 150.261719 827.664062 C 124.574219 849.050781 113.289062 888.390625 122.210938 924.933594 C 129.84375 955.996094 152.628906 979.425781 182.183594 986.414062 C 193.6875 989.101562 218.835938 989.101562 228.617188 986.304688 C 244.847656 981.898438 259.355469 971.796875 267.742188 959.007812 C 273.328125 950.730469 276.660156 944.066406 275.800781 943.207031 C 275.480469 942.777344 267.742188 940.625 258.710938 938.261719 L 242.160156 934.070312 L 239.6875 936.972656 C 233.667969 944.171875 228.1875 949.332031 224.425781 951.265625 C 215.289062 955.890625 198.738281 956.535156 187.453125 952.773438 C 180.679688 950.40625 171.4375 941.808594 167.996094 934.609375 C 165.957031 930.199219 162.085938 916.226562 162.085938 913.003906 C 162.085938 912.789062 189.0625 912.464844 222.0625 912.359375 L 281.929688 912.035156 L 281.929688 899.140625 C 281.929688 892.046875 281.5 883.769531 281.070312 880.867188 C 275.585938 846.582031 258.390625 822.613281 233.023438 814.226562 C 225.824219 811.863281 209.164062 809.175781 204.003906 809.605469 C 203.144531 809.605469 198.308594 810.035156 193.257812 810.464844 Z M 217.332031 847.011719 C 227.113281 851.953125 233.238281 860.445312 236.679688 873.558594 C 237.644531 877.210938 238.398438 880.4375 238.398438 880.757812 C 238.398438 881.082031 221.417969 881.40625 200.78125 881.40625 L 163.054688 881.40625 L 163.804688 877.320312 C 166.601562 861.628906 175.628906 850.449219 189.816406 845.183594 C 196.371094 842.820312 210.992188 843.785156 217.332031 847.011719 Z M 217.332031 847.011719 " fill-opacity="1" fill-rule="nonzero"/><path fill="#ac25c2" d="M 362.539062 810.574219 C 336.957031 814.335938 318.792969 827.125 308.152344 848.730469 C 303.746094 857.757812 302.996094 860.984375 305.359375 860.984375 C 306.003906 860.984375 315.570312 861.734375 326.53125 862.59375 C 340.074219 863.671875 346.523438 863.886719 346.738281 863.132812 C 348.136719 858.941406 356.089844 851.203125 361.679688 848.515625 C 373.609375 842.820312 392.417969 844 401.664062 850.988281 C 406.285156 854.535156 409.1875 861.199219 410.046875 870.117188 L 410.691406 877.105469 L 403.597656 877.105469 C 399.621094 877.105469 389.085938 878.074219 380.058594 879.253906 C 326.855469 886.027344 301.8125 902.6875 299.984375 932.457031 C 299.554688 937.832031 299.878906 943.527344 300.738281 947.074219 C 306.863281 972.980469 333.84375 991.574219 362.433594 989.636719 C 379.628906 988.457031 396.179688 982.542969 406.070312 974.160156 L 410.367188 970.398438 L 410.367188 984.585938 L 431.648438 984.371094 L 452.824219 984.050781 L 452.824219 929.234375 C 452.824219 858.726562 452.394531 854.210938 444.332031 837.765625 C 436.273438 821.429688 423.050781 813.261719 400.695312 810.464844 C 390.164062 809.175781 371.78125 809.285156 362.539062 810.574219 Z M 410.367188 909.566406 C 410.261719 917.304688 408.328125 928.804688 406.070312 933.746094 C 399.941406 947.71875 385.109375 956.855469 368.664062 956.855469 C 349.640625 956.75 338.785156 942.882812 345.664062 927.300781 C 347.921875 922.140625 353.726562 917.519531 361.464844 914.507812 C 372.644531 910.101562 395 905.265625 404.78125 905.15625 L 410.367188 905.050781 Z M 410.367188 909.566406 " fill-opacity="1" fill-rule="nonzero"/></svg>