<svg xmlns="http://www.w3.org/2000/svg" xmlns:xlink="http://www.w3.org/1999/xlink" width="1080" zoomAndPan="magnify" viewBox="0 0 810 809.999993" height="1080" preserveAspectRatio="xMidYMid meet" version="1.0"><defs><g/></defs><g fill="#ac25c2" fill-opacity="1"><g transform="translate(35.301073, 500.636474)"><g><path d="M 34.671875 -92.03125 C 38.523438 -98.769531 44.164062 -104.269531 51.59375 -108.53125 C 59.019531 -112.800781 67.476562 -114.9375 76.96875 -114.9375 C 87.15625 -114.9375 96.304688 -112.53125 104.421875 -107.71875 C 112.535156 -102.90625 118.929688 -96.128906 123.609375 -87.390625 C 128.285156 -78.660156 130.625 -68.515625 130.625 -56.953125 C 130.625 -45.535156 128.285156 -35.351562 123.609375 -26.40625 C 118.929688 -17.46875 112.5 -10.519531 104.3125 -5.5625 C 96.125 -0.613281 87.007812 1.859375 76.96875 1.859375 C 67.207031 1.859375 58.644531 -0.269531 51.28125 -4.53125 C 43.914062 -8.800781 38.378906 -14.238281 34.671875 -20.84375 L 34.671875 0 L 15.890625 0 L 15.890625 -152.703125 L 34.671875 -152.703125 Z M 111.4375 -56.953125 C 111.4375 -65.484375 109.710938 -72.910156 106.265625 -79.234375 C 102.828125 -85.566406 98.1875 -90.382812 92.34375 -93.6875 C 86.5 -96.988281 80.066406 -98.640625 73.046875 -98.640625 C 66.171875 -98.640625 59.804688 -96.953125 53.953125 -93.578125 C 48.109375 -90.210938 43.429688 -85.332031 39.921875 -78.9375 C 36.421875 -72.539062 34.671875 -65.144531 34.671875 -56.75 C 34.671875 -48.21875 36.421875 -40.753906 39.921875 -34.359375 C 43.429688 -27.960938 48.109375 -23.078125 53.953125 -19.703125 C 59.804688 -16.335938 66.171875 -14.65625 73.046875 -14.65625 C 80.066406 -14.65625 86.5 -16.335938 92.34375 -19.703125 C 98.1875 -23.078125 102.828125 -27.960938 106.265625 -34.359375 C 109.710938 -40.753906 111.4375 -48.285156 111.4375 -56.953125 Z M 111.4375 -56.953125 "/></g></g><g transform="translate(174.796574, 500.636474)"><g><path d="M 119.0625 -60.875 C 119.0625 -57.300781 118.859375 -53.519531 118.453125 -49.53125 L 28.0625 -49.53125 C 28.75 -38.382812 32.566406 -29.679688 39.515625 -23.421875 C 46.460938 -17.160156 54.890625 -14.03125 64.796875 -14.03125 C 72.910156 -14.03125 79.6875 -15.921875 85.125 -19.703125 C 90.5625 -23.484375 94.378906 -28.539062 96.578125 -34.875 L 116.796875 -34.875 C 113.773438 -24.007812 107.722656 -15.171875 98.640625 -8.359375 C 89.554688 -1.546875 78.273438 1.859375 64.796875 1.859375 C 54.066406 1.859375 44.46875 -0.546875 36 -5.359375 C 27.539062 -10.179688 20.90625 -17.023438 16.09375 -25.890625 C 11.28125 -34.765625 8.875 -45.050781 8.875 -56.75 C 8.875 -68.445312 11.210938 -78.695312 15.890625 -87.5 C 20.566406 -96.300781 27.132812 -103.070312 35.59375 -107.8125 C 44.050781 -112.5625 53.785156 -114.9375 64.796875 -114.9375 C 75.523438 -114.9375 85.015625 -112.597656 93.265625 -107.921875 C 101.523438 -103.242188 107.890625 -96.8125 112.359375 -88.625 C 116.828125 -80.445312 119.0625 -71.195312 119.0625 -60.875 Z M 99.671875 -64.796875 C 99.671875 -71.953125 98.085938 -78.109375 94.921875 -83.265625 C 91.753906 -88.421875 87.453125 -92.335938 82.015625 -95.015625 C 76.585938 -97.703125 70.570312 -99.046875 63.96875 -99.046875 C 54.476562 -99.046875 46.394531 -96.019531 39.71875 -89.96875 C 33.050781 -83.914062 29.234375 -75.523438 28.265625 -64.796875 Z M 99.671875 -64.796875 "/></g></g><g transform="translate(302.736234, 500.636474)"><g><path d="M 8.875 -56.953125 C 8.875 -68.515625 11.210938 -78.660156 15.890625 -87.390625 C 20.566406 -96.128906 27 -102.90625 35.1875 -107.71875 C 43.375 -112.53125 52.488281 -114.9375 62.53125 -114.9375 C 72.4375 -114.9375 81.035156 -112.800781 88.328125 -108.53125 C 95.617188 -104.269531 101.050781 -98.910156 104.625 -92.453125 L 104.625 -113.078125 L 123.609375 -113.078125 L 123.609375 0 L 104.625 0 L 104.625 -21.046875 C 100.90625 -14.441406 95.363281 -8.972656 88 -4.640625 C 80.644531 -0.304688 72.085938 1.859375 62.328125 1.859375 C 52.273438 1.859375 43.191406 -0.613281 35.078125 -5.5625 C 26.960938 -10.519531 20.566406 -17.46875 15.890625 -26.40625 C 11.210938 -35.351562 8.875 -45.535156 8.875 -56.953125 Z M 104.625 -56.75 C 104.625 -65.28125 102.90625 -72.707031 99.46875 -79.03125 C 96.03125 -85.363281 91.382812 -90.210938 85.53125 -93.578125 C 79.6875 -96.953125 73.253906 -98.640625 66.234375 -98.640625 C 59.222656 -98.640625 52.828125 -96.988281 47.046875 -93.6875 C 41.273438 -90.382812 36.664062 -85.566406 33.21875 -79.234375 C 29.78125 -72.910156 28.0625 -65.484375 28.0625 -56.953125 C 28.0625 -48.285156 29.78125 -40.753906 33.21875 -34.359375 C 36.664062 -27.960938 41.273438 -23.078125 47.046875 -19.703125 C 52.828125 -16.335938 59.222656 -14.65625 66.234375 -14.65625 C 73.253906 -14.65625 79.6875 -16.335938 85.53125 -19.703125 C 91.382812 -23.078125 96.03125 -27.960938 99.46875 -34.359375 C 102.90625 -40.753906 104.625 -48.21875 104.625 -56.75 Z M 104.625 -56.75 "/></g></g><g transform="translate(442.231734, 500.636474)"><g><path d="M 8.875 -56.75 C 8.875 -68.445312 11.210938 -78.660156 15.890625 -87.390625 C 20.566406 -96.128906 27.066406 -102.90625 35.390625 -107.71875 C 43.710938 -112.53125 53.238281 -114.9375 63.96875 -114.9375 C 77.863281 -114.9375 89.316406 -111.566406 98.328125 -104.828125 C 107.335938 -98.085938 113.289062 -88.734375 116.1875 -76.765625 L 95.953125 -76.765625 C 94.023438 -83.640625 90.273438 -89.070312 84.703125 -93.0625 C 79.140625 -97.050781 72.226562 -99.046875 63.96875 -99.046875 C 53.238281 -99.046875 44.570312 -95.363281 37.96875 -88 C 31.363281 -80.644531 28.0625 -70.226562 28.0625 -56.75 C 28.0625 -43.125 31.363281 -32.597656 37.96875 -25.171875 C 44.570312 -17.742188 53.238281 -14.03125 63.96875 -14.03125 C 72.226562 -14.03125 79.109375 -15.957031 84.609375 -19.8125 C 90.109375 -23.664062 93.890625 -29.164062 95.953125 -36.3125 L 116.1875 -36.3125 C 113.15625 -24.757812 107.097656 -15.507812 98.015625 -8.5625 C 88.941406 -1.613281 77.59375 1.859375 63.96875 1.859375 C 53.238281 1.859375 43.710938 -0.546875 35.390625 -5.359375 C 27.066406 -10.179688 20.566406 -16.992188 15.890625 -25.796875 C 11.210938 -34.597656 8.875 -44.914062 8.875 -56.75 Z M 8.875 -56.75 "/></g></g></g><g fill="#ac25c2" fill-opacity="1"><g transform="translate(567.488773, 500.636474)"><g><path d="M 65.203125 1.859375 C 54.609375 1.859375 45.015625 -0.546875 36.421875 -5.359375 C 27.828125 -10.179688 21.085938 -17.023438 16.203125 -25.890625 C 11.316406 -34.765625 8.875 -45.050781 8.875 -56.75 C 8.875 -68.300781 11.382812 -78.515625 16.40625 -87.390625 C 21.425781 -96.265625 28.269531 -103.070312 36.9375 -107.8125 C 45.601562 -112.5625 55.300781 -114.9375 66.03125 -114.9375 C 76.757812 -114.9375 86.457031 -112.5625 95.125 -107.8125 C 103.789062 -103.070312 110.632812 -96.300781 115.65625 -87.5 C 120.6875 -78.695312 123.203125 -68.445312 123.203125 -56.75 C 123.203125 -45.050781 120.617188 -34.765625 115.453125 -25.890625 C 110.296875 -17.023438 103.316406 -10.179688 94.515625 -5.359375 C 85.710938 -0.546875 75.941406 1.859375 65.203125 1.859375 Z M 65.203125 -14.65625 C 71.953125 -14.65625 78.28125 -16.234375 84.1875 -19.390625 C 90.101562 -22.554688 94.882812 -27.300781 98.53125 -33.625 C 102.175781 -39.957031 104 -47.664062 104 -56.75 C 104 -65.832031 102.210938 -73.535156 98.640625 -79.859375 C 95.066406 -86.191406 90.390625 -90.90625 84.609375 -94 C 78.828125 -97.09375 72.566406 -98.640625 65.828125 -98.640625 C 58.953125 -98.640625 52.660156 -97.09375 46.953125 -94 C 41.242188 -90.90625 36.664062 -86.191406 33.21875 -79.859375 C 29.78125 -73.535156 28.0625 -65.832031 28.0625 -56.75 C 28.0625 -47.53125 29.742188 -39.753906 33.109375 -33.421875 C 36.484375 -27.097656 40.988281 -22.390625 46.625 -19.296875 C 52.269531 -16.203125 58.460938 -14.65625 65.203125 -14.65625 Z M 65.203125 -14.65625 "/></g></g></g><g fill="#ac25c2" fill-opacity="1"><g transform="translate(699.555504, 500.636474)"><g><path d="M 38.796875 -97.609375 L 38.796875 -30.953125 C 38.796875 -25.453125 39.960938 -21.566406 42.296875 -19.296875 C 44.640625 -17.023438 48.703125 -15.890625 54.484375 -15.890625 L 68.3125 -15.890625 L 68.3125 0 L 51.390625 0 C 40.929688 0 33.085938 -2.40625 27.859375 -7.21875 C 22.628906 -12.03125 20.015625 -19.941406 20.015625 -30.953125 L 20.015625 -97.609375 L 5.359375 -97.609375 L 5.359375 -113.078125 L 20.015625 -113.078125 L 20.015625 -141.5625 L 38.796875 -141.5625 L 38.796875 -113.078125 L 68.3125 -113.078125 L 68.3125 -97.609375 Z M 38.796875 -97.609375 "/></g></g></g></svg>